<mxfile host="app.diagrams.net" agent="Mozilla/5.0 (Windows NT 10.0; Win64; x64) AppleWebKit/537.36 (KHTML, like Gecko) Chrome/132.0.0.0 Safari/537.36" version="26.0.12">
  <diagram name="페이지-1" id="gaN1Vh5a5HU_vkB-SsTf">
    <mxGraphModel dx="1687" dy="2077" grid="1" gridSize="10" guides="1" tooltips="1" connect="1" arrows="1" fold="1" page="1" pageScale="1" pageWidth="827" pageHeight="1169" math="0" shadow="0">
      <root>
        <mxCell id="0" />
        <mxCell id="1" parent="0" />
        <mxCell id="xX1EgpcjX_F0g4P4CQZZ-5" value="" style="edgeStyle=orthogonalEdgeStyle;rounded=0;orthogonalLoop=1;jettySize=auto;html=1;entryX=0;entryY=0.5;entryDx=0;entryDy=0;" edge="1" parent="1" source="xX1EgpcjX_F0g4P4CQZZ-6" target="xX1EgpcjX_F0g4P4CQZZ-12">
          <mxGeometry relative="1" as="geometry">
            <mxPoint x="555" y="180" as="targetPoint" />
          </mxGeometry>
        </mxCell>
        <mxCell id="xX1EgpcjX_F0g4P4CQZZ-6" value="" style="rounded=1;whiteSpace=wrap;html=1;" vertex="1" parent="1">
          <mxGeometry x="70" y="110" width="270" height="140" as="geometry" />
        </mxCell>
        <mxCell id="xX1EgpcjX_F0g4P4CQZZ-7" value="&lt;font&gt;웹 브라우저&lt;/font&gt;" style="verticalAlign=top;verticalLabelPosition=bottom;labelPosition=center;align=center;html=1;outlineConnect=0;gradientDirection=north;strokeWidth=1;shape=mxgraph.networks.pc;fillColor=#d5e8d4;strokeColor=#82b366;" vertex="1" parent="1">
          <mxGeometry x="100" y="140" width="100" height="70" as="geometry" />
        </mxCell>
        <mxCell id="xX1EgpcjX_F0g4P4CQZZ-8" value="모바일 앱" style="outlineConnect=0;dashed=0;verticalLabelPosition=bottom;verticalAlign=top;align=center;html=1;shape=mxgraph.aws3.mobile_client;fillColor=#f8cecc;strokeColor=#b85450;" vertex="1" parent="1">
          <mxGeometry x="250" y="147" width="40.5" height="63" as="geometry" />
        </mxCell>
        <mxCell id="xX1EgpcjX_F0g4P4CQZZ-9" value="클라이언트" style="text;html=1;align=center;verticalAlign=middle;resizable=0;points=[];autosize=1;strokeColor=none;fillColor=none;" vertex="1" parent="1">
          <mxGeometry x="165" y="80" width="80" height="30" as="geometry" />
        </mxCell>
        <mxCell id="xX1EgpcjX_F0g4P4CQZZ-10" value="API 서버" style="image;aspect=fixed;perimeter=ellipsePerimeter;html=1;align=center;shadow=0;dashed=0;spacingTop=3;image=img/lib/active_directory/server_farm.svg;" vertex="1" parent="1">
          <mxGeometry x="720" y="130" width="100" height="100" as="geometry" />
        </mxCell>
        <mxCell id="xX1EgpcjX_F0g4P4CQZZ-11" value="" style="edgeStyle=orthogonalEdgeStyle;rounded=0;orthogonalLoop=1;jettySize=auto;html=1;" edge="1" parent="1" source="xX1EgpcjX_F0g4P4CQZZ-12">
          <mxGeometry relative="1" as="geometry">
            <mxPoint x="720" y="180" as="targetPoint" />
          </mxGeometry>
        </mxCell>
        <mxCell id="xX1EgpcjX_F0g4P4CQZZ-15" value="성공" style="edgeLabel;html=1;align=center;verticalAlign=middle;resizable=0;points=[];" vertex="1" connectable="0" parent="xX1EgpcjX_F0g4P4CQZZ-11">
          <mxGeometry x="0.0804" relative="1" as="geometry">
            <mxPoint y="1" as="offset" />
          </mxGeometry>
        </mxCell>
        <mxCell id="xX1EgpcjX_F0g4P4CQZZ-28" value="" style="edgeStyle=orthogonalEdgeStyle;rounded=0;orthogonalLoop=1;jettySize=auto;html=1;entryX=0.5;entryY=1;entryDx=0;entryDy=0;exitX=0.426;exitY=1.004;exitDx=0;exitDy=0;exitPerimeter=0;" edge="1" parent="1" source="xX1EgpcjX_F0g4P4CQZZ-12">
          <mxGeometry relative="1" as="geometry">
            <mxPoint x="525" y="230.00000000000023" as="sourcePoint" />
            <mxPoint x="200" y="260" as="targetPoint" />
            <Array as="points">
              <mxPoint x="520" y="230" />
              <mxPoint x="520" y="230" />
              <mxPoint x="520" y="510" />
              <mxPoint x="200" y="510" />
            </Array>
          </mxGeometry>
        </mxCell>
        <mxCell id="xX1EgpcjX_F0g4P4CQZZ-36" value="429: too many requests" style="edgeLabel;html=1;align=center;verticalAlign=middle;resizable=0;points=[];" vertex="1" connectable="0" parent="xX1EgpcjX_F0g4P4CQZZ-28">
          <mxGeometry x="0.0539" y="1" relative="1" as="geometry">
            <mxPoint as="offset" />
          </mxGeometry>
        </mxCell>
        <mxCell id="xX1EgpcjX_F0g4P4CQZZ-37" value="스로틀링됨" style="edgeLabel;html=1;align=center;verticalAlign=middle;resizable=0;points=[];" vertex="1" connectable="0" parent="xX1EgpcjX_F0g4P4CQZZ-28">
          <mxGeometry x="-0.6448" y="1" relative="1" as="geometry">
            <mxPoint as="offset" />
          </mxGeometry>
        </mxCell>
        <mxCell id="xX1EgpcjX_F0g4P4CQZZ-12" value="처리율 제한&lt;div&gt;미들웨어&lt;/div&gt;" style="shape=parallelogram;perimeter=parallelogramPerimeter;whiteSpace=wrap;html=1;fixedSize=1;" vertex="1" parent="1">
          <mxGeometry x="460" y="140" width="140" height="80" as="geometry" />
        </mxCell>
        <mxCell id="xX1EgpcjX_F0g4P4CQZZ-13" value="레디스" style="image;sketch=0;aspect=fixed;html=1;points=[];align=center;fontSize=12;image=img/lib/mscae/Cache_Redis_Product.svg;" vertex="1" parent="1">
          <mxGeometry x="728.3299999999999" y="330" width="83.33" height="70" as="geometry" />
        </mxCell>
        <mxCell id="xX1EgpcjX_F0g4P4CQZZ-14" value="" style="endArrow=classic;html=1;rounded=0;exitX=1;exitY=0.5;exitDx=0;exitDy=0;entryX=-0.004;entryY=0.514;entryDx=0;entryDy=0;entryPerimeter=0;startArrow=classic;startFill=1;" edge="1" parent="1" source="xX1EgpcjX_F0g4P4CQZZ-12" target="xX1EgpcjX_F0g4P4CQZZ-13">
          <mxGeometry width="50" height="50" relative="1" as="geometry">
            <mxPoint x="390" y="420" as="sourcePoint" />
            <mxPoint x="440" y="370" as="targetPoint" />
          </mxGeometry>
        </mxCell>
        <mxCell id="xX1EgpcjX_F0g4P4CQZZ-40" value="" style="edgeStyle=orthogonalEdgeStyle;rounded=0;orthogonalLoop=1;jettySize=auto;html=1;startArrow=classic;startFill=1;endArrow=none;entryX=0;entryY=0.5;entryDx=0;entryDy=0;" edge="1" parent="1" source="xX1EgpcjX_F0g4P4CQZZ-16" target="xX1EgpcjX_F0g4P4CQZZ-38">
          <mxGeometry relative="1" as="geometry">
            <mxPoint x="926.185" y="-9.999999999999773" as="targetPoint" />
          </mxGeometry>
        </mxCell>
        <mxCell id="xX1EgpcjX_F0g4P4CQZZ-16" value="캐시된 규칙" style="outlineConnect=0;dashed=0;verticalLabelPosition=bottom;verticalAlign=top;align=center;html=1;shape=mxgraph.aws3.cache_node;fillColor=#2E73B8;gradientColor=none;" vertex="1" parent="1">
          <mxGeometry x="731.9" y="-50" width="76.19" height="80" as="geometry" />
        </mxCell>
        <mxCell id="xX1EgpcjX_F0g4P4CQZZ-19" value="" style="endArrow=classic;html=1;rounded=0;exitX=1;exitY=0.5;exitDx=0;exitDy=0;entryX=0;entryY=0.5;entryDx=0;entryDy=0;entryPerimeter=0;startArrow=none;startFill=0;" edge="1" parent="1" source="xX1EgpcjX_F0g4P4CQZZ-12" target="xX1EgpcjX_F0g4P4CQZZ-16">
          <mxGeometry width="50" height="50" relative="1" as="geometry">
            <mxPoint x="600" y="190" as="sourcePoint" />
            <mxPoint x="739" y="341" as="targetPoint" />
          </mxGeometry>
        </mxCell>
        <mxCell id="xX1EgpcjX_F0g4P4CQZZ-20" value="" style="rounded=1;whiteSpace=wrap;html=1;" vertex="1" parent="1">
          <mxGeometry x="650" y="630" width="250" height="60" as="geometry" />
        </mxCell>
        <mxCell id="xX1EgpcjX_F0g4P4CQZZ-21" value="" style="shape=message;html=1;html=1;outlineConnect=0;labelPosition=center;verticalLabelPosition=bottom;align=center;verticalAlign=top;" vertex="1" parent="1">
          <mxGeometry x="664" y="640" width="60" height="40" as="geometry" />
        </mxCell>
        <mxCell id="xX1EgpcjX_F0g4P4CQZZ-22" value="" style="shape=message;html=1;html=1;outlineConnect=0;labelPosition=center;verticalLabelPosition=bottom;align=center;verticalAlign=top;" vertex="1" parent="1">
          <mxGeometry x="740" y="640" width="60" height="40" as="geometry" />
        </mxCell>
        <mxCell id="xX1EgpcjX_F0g4P4CQZZ-23" value="" style="shape=message;html=1;html=1;outlineConnect=0;labelPosition=center;verticalLabelPosition=bottom;align=center;verticalAlign=top;" vertex="1" parent="1">
          <mxGeometry x="820" y="640" width="60" height="40" as="geometry" />
        </mxCell>
        <mxCell id="xX1EgpcjX_F0g4P4CQZZ-24" value="메시지 큐에 보관" style="text;html=1;align=center;verticalAlign=middle;resizable=0;points=[];autosize=1;strokeColor=none;fillColor=none;" vertex="1" parent="1">
          <mxGeometry x="720" y="690" width="110" height="30" as="geometry" />
        </mxCell>
        <mxCell id="xX1EgpcjX_F0g4P4CQZZ-30" value="" style="edgeStyle=orthogonalEdgeStyle;rounded=0;orthogonalLoop=1;jettySize=auto;html=1;startArrow=classic;startFill=1;endArrow=none;dashed=1;" edge="1" parent="1" source="xX1EgpcjX_F0g4P4CQZZ-26">
          <mxGeometry relative="1" as="geometry">
            <mxPoint x="520" y="510" as="targetPoint" />
          </mxGeometry>
        </mxCell>
        <mxCell id="xX1EgpcjX_F0g4P4CQZZ-31" value="옵션 1" style="edgeLabel;html=1;align=center;verticalAlign=middle;resizable=0;points=[];" vertex="1" connectable="0" parent="xX1EgpcjX_F0g4P4CQZZ-30">
          <mxGeometry x="-0.0191" y="-1" relative="1" as="geometry">
            <mxPoint as="offset" />
          </mxGeometry>
        </mxCell>
        <mxCell id="xX1EgpcjX_F0g4P4CQZZ-26" value="요청 버림" style="shape=image;html=1;verticalAlign=top;verticalLabelPosition=bottom;labelBackgroundColor=#ffffff;imageAspect=0;aspect=fixed;image=https://cdn1.iconfinder.com/data/icons/ionicons-outline-vol-2/512/water-outline-128.png" vertex="1" parent="1">
          <mxGeometry x="720" y="460" width="102" height="102" as="geometry" />
        </mxCell>
        <mxCell id="xX1EgpcjX_F0g4P4CQZZ-34" value="" style="endArrow=classic;html=1;rounded=0;dashed=1;" edge="1" parent="1">
          <mxGeometry width="50" height="50" relative="1" as="geometry">
            <mxPoint x="520" y="510" as="sourcePoint" />
            <mxPoint x="640" y="660" as="targetPoint" />
          </mxGeometry>
        </mxCell>
        <mxCell id="xX1EgpcjX_F0g4P4CQZZ-35" value="옵션 2" style="edgeLabel;html=1;align=center;verticalAlign=middle;resizable=0;points=[];" vertex="1" connectable="0" parent="xX1EgpcjX_F0g4P4CQZZ-34">
          <mxGeometry x="-0.0044" y="-1" relative="1" as="geometry">
            <mxPoint as="offset" />
          </mxGeometry>
        </mxCell>
        <mxCell id="xX1EgpcjX_F0g4P4CQZZ-42" value="" style="edgeStyle=orthogonalEdgeStyle;rounded=0;orthogonalLoop=1;jettySize=auto;html=1;" edge="1" parent="1" source="xX1EgpcjX_F0g4P4CQZZ-38" target="xX1EgpcjX_F0g4P4CQZZ-41">
          <mxGeometry relative="1" as="geometry" />
        </mxCell>
        <mxCell id="xX1EgpcjX_F0g4P4CQZZ-38" value="작업 프로세스" style="image;aspect=fixed;perimeter=ellipsePerimeter;html=1;align=center;shadow=0;dashed=0;spacingTop=3;image=img/lib/active_directory/server_farm.svg;" vertex="1" parent="1">
          <mxGeometry x="940" y="-60" width="100" height="100" as="geometry" />
        </mxCell>
        <mxCell id="xX1EgpcjX_F0g4P4CQZZ-41" value="클라이언트" style="rounded=1;whiteSpace=wrap;html=1;" vertex="1" parent="1">
          <mxGeometry x="930" y="-210" width="120" height="60" as="geometry" />
        </mxCell>
      </root>
    </mxGraphModel>
  </diagram>
</mxfile>
